<?xml version="1.0" standalone="no"?>
<svg version="1.0" xmlns="http://www.w3.org/2000/svg"
 viewBox="420 50 430 460"
 preserveAspectRatio="xMidYMid meet">
<g transform="translate(0.000000,655.000000) scale(0.100000,-0.100000)"
fill="#000000" stroke="none">
<path d="M5870 5819 c-473 -19 -928 -186 -1330 -488 -488 -366 -831 -908 -951
-1503 -37 -185 -48 -301 -49 -499 0 -174 7 -249 24 -249 8 0 11 68 12 228 1
153 7 266 18 347 87 614 383 1152 860 1562 334 287 751 478 1195 549 155 24
461 29 627 10 424 -49 817 -207 1170 -472 446 -334 784 -843 911 -1374 62
-255 74 -365 75 -637 0 -164 3 -213 13 -213 17 0 25 76 25 241 0 464 -125 912
-366 1311 -218 361 -554 684 -919 885 -237 130 -434 204 -685 257 -204 43
-372 55 -630 45z"/>
<path d="M6640 4964 c-68 -18 -100 -47 -100 -89 0 -31 -1 -32 -77 -49 l-78
-18 -83 56 c-64 43 -92 56 -120 56 -48 0 -361 -76 -380 -93 -8 -6 -39 -50 -69
-96 l-54 -83 -25 23 c-23 22 -34 24 -112 23 -139 -2 -245 -54 -229 -113 8 -31
-32 -35 -59 -6 -21 23 -31 25 -102 25 -152 0 -262 -54 -248 -122 5 -25 1 -30
-42 -50 -32 -16 -50 -32 -56 -51 -16 -45 11 -256 105 -842 40 -248 53 -309 73
-340 20 -30 136 -86 191 -92 47 -6 177 21 715 147 69 16 186 43 262 60 l136
30 104 -25 c115 -28 153 -30 230 -14 91 20 172 63 246 132 64 60 73 65 148 82
159 35 202 69 190 153 -4 26 -16 112 -26 192 -11 80 -29 204 -39 275 -22 144
-45 306 -67 465 -17 129 -38 201 -63 224 -10 9 -41 25 -67 36 -42 15 -50 23
-60 55 -5 21 -19 44 -29 51 -25 18 -143 17 -215 -2z m-410 -105 c19 -12 83
-57 141 -101 99 -74 109 -85 138 -147 36 -78 96 -234 105 -274 l7 -28 -39 20
c-96 49 -210 66 -317 47 -163 -28 -296 -127 -364 -270 -22 -45 -44 -111 -51
-148 -7 -38 -15 -68 -18 -68 -2 0 -2 57 1 128 6 143 38 378 66 493 25 101 90
281 111 309 14 18 91 44 180 59 3 1 21 -9 40 -20z m716 -45 c40 -19 44 -34 8
-34 -23 0 -207 -38 -363 -75 l-63 -15 -42 37 c-22 20 -42 40 -44 43 -1 3 21
10 50 16 45 8 56 6 71 -8 38 -39 285 -14 316 32 16 24 23 25 67 4z m78 -208
c22 -150 24 -144 -71 -166 -32 -7 -112 -26 -178 -41 -65 -16 -122 -26 -125
-21 -9 9 -100 257 -100 270 0 5 19 12 43 16 23 3 112 22 197 40 85 19 169 34
185 33 l30 -2 19 -129z m-1242 -77 c45 -29 47 -35 11 -42 -16 -4 -113 -27
-218 -52 -458 -111 -547 -128 -598 -115 -52 13 -117 41 -117 50 0 4 11 12 24
19 21 12 26 11 44 -7 55 -55 294 -26 351 42 9 10 11 29 8 50 -4 28 -2 35 14
39 14 4 23 -1 31 -18 16 -35 68 -49 157 -41 53 4 92 14 131 34 51 25 55 30 58
65 l3 38 32 -19 c18 -10 49 -29 69 -43z m-542 -63 c0 -35 -63 -58 -174 -64
-78 -4 -91 -2 -103 14 -25 34 -16 39 80 40 61 0 104 6 127 17 52 23 70 21 70
-7z m597 -39 c-4 -12 -14 -65 -23 -117 -8 -52 -17 -96 -19 -98 -1 -1 -76 -20
-166 -42 -453 -108 -549 -130 -561 -130 -9 0 -13 19 -15 68 -1 72 -15 122 -34
122 -14 0 -6 -121 10 -164 9 -23 8 -24 -17 -16 -50 14 -117 43 -128 54 -12 11
-34 133 -34 184 l0 28 73 -24 c83 -28 107 -27 287 13 192 43 543 125 575 134
50 15 58 13 52 -12z m623 -117 c24 -8 24 -8 -6 -9 -54 -2 -158 -39 -220 -79
-161 -104 -253 -307 -226 -496 12 -83 56 -191 95 -236 12 -14 2 -7 -21 15 -25
23 -58 71 -78 111 -31 61 -36 84 -41 165 -10 168 37 299 146 403 101 96 263
154 351 126z m240 -136 c143 -42 233 -147 261 -305 34 -190 -75 -400 -250
-483 -60 -28 -75 -31 -166 -31 -117 0 -165 17 -240 86 -58 53 -94 115 -111
188 -77 324 210 633 506 545z m-1621 -304 c13 -81 81 -558 81 -573 0 -7 -3 -7
-9 -1 -17 16 -101 538 -101 624 0 52 16 24 29 -50z m539 48 c5 -7 16 -48 22
-91 11 -65 18 -84 41 -105 42 -40 47 -81 14 -120 -35 -41 -84 -44 -121 -6 -23
22 -25 30 -19 67 5 23 8 89 8 147 -1 102 4 119 33 120 6 0 16 -6 22 -12z m520
-523 c28 -11 52 -22 52 -25 0 -3 -55 -18 -123 -33 -817 -187 -836 -191 -899
-184 -56 7 -121 38 -142 69 -26 36 -19 39 37 16 86 -34 137 -28 542 66 204 47
393 92 420 100 28 7 52 13 55 12 3 -1 29 -10 58 -21z"/>
<path d="M6261 4645 c-206 -44 -323 -81 -293 -92 15 -6 100 9 257 43 139 31
207 53 199 65 -8 13 -36 10 -163 -16z"/>
<path d="M6767 4655 c-54 -12 -103 -27 -109 -33 -13 -13 5 -169 21 -185 8 -8
113 12 235 44 l39 10 -7 57 c-4 31 -11 74 -17 95 -12 45 -18 45 -162 12z m77
-80 c4 -25 5 -49 2 -54 -6 -9 -124 -36 -130 -30 -3 2 -6 26 -8 54 l-3 49 50
12 c81 19 82 19 89 -31z"/>
<path d="M6780 4074 c0 -6 10 -19 21 -30 12 -10 34 -44 48 -74 22 -48 26 -68
26 -160 0 -98 -2 -110 -32 -172 -38 -80 -109 -156 -182 -192 -58 -30 -65 -39
-20 -26 137 40 238 157 271 314 15 68 1 162 -32 230 -23 45 -100 130 -100 110z"/>
<path d="M6435 4001 c-56 -32 -96 -82 -120 -150 -53 -152 53 -311 210 -311
196 0 313 245 195 408 -41 57 -94 82 -172 82 -51 0 -73 -6 -113 -29z m91 -62
c-20 -29 -34 -55 -31 -57 2 -2 33 1 68 8 43 9 79 10 112 4 l50 -9 -73 -3 -72
-3 40 -48 c38 -45 87 -147 76 -158 -2 -3 -14 18 -26 46 -31 70 -46 81 -55 39
-9 -41 -39 -102 -72 -146 -39 -53 -38 -30 2 33 l37 56 -49 -8 c-66 -11 -163
-8 -176 7 -9 9 3 10 56 5 37 -4 67 -4 67 -1 0 4 -13 24 -29 44 -40 50 -73 117
-69 138 2 11 12 -2 27 -34 23 -50 41 -67 41 -39 0 20 60 141 82 164 34 37 31
20 -6 -38z"/>
</g>
</svg>
